<?xml version="1.0" encoding="UTF-8"?><svg id="a" xmlns="http://www.w3.org/2000/svg" viewBox="0 0 360 360"><path d="M0,173.67C7.7,57.71,120.17-22.9,232.82,11.77c118.27,36.4,164.49,180.66,90.98,280.67-19,25.84-53.79,53.51-84.82,62.67-5.86,1.73-11.87,1.85-14.27-4.75-1.15-18.18,1.03-37.36-.12-55.43-.68-10.79-3.7-22.81-11.95-30.2.49-.73.93-.88,1.76-1.04,20.56-3.99,37.1-5.31,54-19.72,30.08-25.66,35.98-88.17,7.49-117.19,5.6-15.84,3.8-32.34-1.64-47.89-12.26-1.8-25.68,4.24-36.37,10.05-4.63,2.52-8.69,6.22-13.71,8.07-29.11-7.59-59.95-7.6-89.05,0-10.07-5.46-19.57-12.17-30.59-15.77-6.09-1.99-13.23-4.01-19.49-2.36-5.49,15.6-7.16,32-1.64,47.89-20.73,21.64-21.77,54.88-13.94,82.42,8.83,31.06,31.22,46.35,61.73,52.76,5.08,1.07,10.64.91,15.47,2.77-4.65,3.96-7.34,9.58-9.32,15.27-.88,2.54-.91,6.95-2.64,8.6-3.27,3.12-18.16,4.92-22.76,4.59-25.25-1.82-25.58-24.18-43.16-34.1-5.03-2.84-13.19-5.78-18.78-3.32-7.66,3.37,6.04,10.65,8.58,12.84,10.43,9.02,12.01,17.74,18.25,28.83,11.68,20.74,36.39,24.24,57.9,18.97.08,7.38-.08,14.79-.02,22.18.02,2.31.87,4.26.73,6.98-.31,5.96-2.96,10.69-9.46,10.78-4.76.07-20.85-7.33-25.87-9.8C41.96,317.86,3.5,258.07,0,193.36v-19.69Z"/></svg>