<?xml version="1.0" encoding="UTF-8"?><svg id="a" xmlns="http://www.w3.org/2000/svg" viewBox="0 0 360 360"><path d="M44.3,0c11.8,2.28,22.44,8.32,28.69,18.77,18.61,31.14-10.3,68.51-45.01,58.37C12.86,72.73,2.67,59.54,0,44.3c.25-3.16-.35-6.76,0-9.84C1.43,21.79,11.25,8.54,22.95,3.62l11.5-3.62h9.84Z"/><path d="M112.5,360V112.5h80.86v46.41c18.57-22.77,43.51-41.8,73.57-45.61,41.35-5.24,79.73,19.45,90.62,59.67l2.45,12.66v174.38h-80.16l-.04-156.4c-19.92-52.32-67.16-5.42-86.13,20.66l-.31,135.74h-80.86Z"/><rect x="0" y="112.5" width="80.86" height="247.5"/></svg>